<mxfile host="65bd71144e">
    <diagram id="puRboPM44XWlyKMjKKkZ" name="ページ1">
        <mxGraphModel dx="306" dy="363" grid="1" gridSize="10" guides="1" tooltips="1" connect="1" arrows="1" fold="1" page="1" pageScale="1" pageWidth="1169" pageHeight="1654" math="0" shadow="0">
            <root>
                <mxCell id="0"/>
                <mxCell id="1" parent="0"/>
                <mxCell id="32" value="&lt;font color=&quot;#1a1a1a&quot;&gt;Welcomeページ&lt;/font&gt;" style="whiteSpace=wrap;html=1;labelBackgroundColor=none;fontSize=12;fillColor=#f9f7ed;strokeColor=#36393d;verticalAlign=top;" parent="1" vertex="1">
                    <mxGeometry x="28" y="160" width="120" height="240" as="geometry"/>
                </mxCell>
                <mxCell id="4" value="&lt;font color=&quot;#1a1a1a&quot; style=&quot;font-size: 12px;&quot;&gt;新規ユーザ&lt;br&gt;登録&lt;/font&gt;" style="whiteSpace=wrap;html=1;fillColor=#ffcccc;strokeColor=#36393d;fontSize=11;" parent="1" vertex="1">
                    <mxGeometry x="53" y="334" width="70" height="30" as="geometry"/>
                </mxCell>
                <mxCell id="5" value="&lt;font color=&quot;#1a1a1a&quot;&gt;ログイン画面&lt;/font&gt;" style="whiteSpace=wrap;html=1;fillColor=#ffcccc;strokeColor=#36393d;verticalAlign=top;" parent="1" vertex="1">
                    <mxGeometry x="248" y="160" width="120" height="80" as="geometry"/>
                </mxCell>
                <mxCell id="6" value="&lt;font color=&quot;#1a1a1a&quot;&gt;ホーム画面&lt;br&gt;&lt;/font&gt;" style="whiteSpace=wrap;html=1;fillColor=#cdeb8b;strokeColor=#36393d;verticalAlign=top;" parent="1" vertex="1">
                    <mxGeometry x="468" y="160" width="120" height="370" as="geometry"/>
                </mxCell>
                <mxCell id="9" value="&lt;span style=&quot;font-family: &amp;quot;Noto Sans JP&amp;quot;, &amp;quot;ヒラギノ角ゴ Pro W3&amp;quot;, &amp;quot;Hiragino Kaku Gothic Pro&amp;quot;, メイリオ, Meiryo, YuGothic, 游ゴシック, &amp;quot;ＭＳ Ｐゴシック&amp;quot;, &amp;quot;MS PGothic&amp;quot;, arial, sans-serif; text-align: left;&quot;&gt;&lt;font style=&quot;font-size: 12px;&quot; color=&quot;#1a1a1a&quot;&gt;物件情報&lt;br&gt;一覧&lt;/font&gt;&lt;/span&gt;" style="whiteSpace=wrap;html=1;fillColor=#cdeb8b;strokeColor=#36393d;" parent="1" vertex="1">
                    <mxGeometry x="493" y="265" width="70" height="30" as="geometry"/>
                </mxCell>
                <mxCell id="25" value="&lt;span style=&quot;font-family: &amp;quot;Noto Sans JP&amp;quot;, &amp;quot;ヒラギノ角ゴ Pro W3&amp;quot;, &amp;quot;Hiragino Kaku Gothic Pro&amp;quot;, メイリオ, Meiryo, YuGothic, 游ゴシック, &amp;quot;ＭＳ Ｐゴシック&amp;quot;, &amp;quot;MS PGothic&amp;quot;, arial, sans-serif; text-align: left;&quot;&gt;&lt;font style=&quot;font-size: 12px;&quot; color=&quot;#1a1a1a&quot;&gt;削除画面&lt;/font&gt;&lt;/span&gt;" style="whiteSpace=wrap;html=1;fillColor=#cdeb8b;strokeColor=#36393d;verticalAlign=top;" parent="1" vertex="1">
                    <mxGeometry x="1230" y="275" width="120" height="60" as="geometry"/>
                </mxCell>
                <mxCell id="30" value="&lt;font color=&quot;#1a1a1a&quot;&gt;ログイン&lt;/font&gt;" style="whiteSpace=wrap;html=1;fillColor=#ffcccc;strokeColor=#36393d;" parent="1" vertex="1">
                    <mxGeometry x="53" y="195" width="70" height="30" as="geometry"/>
                </mxCell>
                <mxCell id="34" value="&lt;span style=&quot;color: rgb(26, 26, 26);&quot;&gt;&lt;font style=&quot;font-size: 12px;&quot;&gt;ユーザ登録画面&lt;/font&gt;&lt;/span&gt;" style="whiteSpace=wrap;html=1;fillColor=#ffcccc;strokeColor=#36393d;verticalAlign=top;" parent="1" vertex="1">
                    <mxGeometry x="248" y="319" width="120" height="81" as="geometry"/>
                </mxCell>
                <mxCell id="36" value="" style="edgeStyle=none;orthogonalLoop=1;jettySize=auto;html=1;fontSize=12;fontColor=#1A1A1A;shape=flexArrow;" parent="1" edge="1">
                    <mxGeometry width="100" relative="1" as="geometry">
                        <mxPoint x="158" y="209.57" as="sourcePoint"/>
                        <mxPoint x="238" y="209.57" as="targetPoint"/>
                        <Array as="points"/>
                    </mxGeometry>
                </mxCell>
                <mxCell id="50" value="&lt;div style=&quot;border-color: var(--border-color); text-align: left;&quot;&gt;&lt;font style=&quot;border-color: var(--border-color);&quot; face=&quot;Noto Sans JP, ヒラギノ角ゴ Pro W3, Hiragino Kaku Gothic Pro, メイリオ, Meiryo, YuGothic, 游ゴシック, ＭＳ Ｐゴシック, MS PGothic, arial, sans-serif&quot; color=&quot;#1a1a1a&quot;&gt;詳細画面&lt;/font&gt;&lt;/div&gt;&lt;div style=&quot;border-color: var(--border-color);&quot;&gt;&lt;font style=&quot;border-color: var(--border-color);&quot; face=&quot;Noto Sans JP, ヒラギノ角ゴ Pro W3, Hiragino Kaku Gothic Pro, メイリオ, Meiryo, YuGothic, 游ゴシック, ＭＳ Ｐゴシック, MS PGothic, arial, sans-serif&quot; color=&quot;#1a1a1a&quot;&gt;へ戻る&lt;/font&gt;&lt;/div&gt;" style="whiteSpace=wrap;html=1;fillColor=#fff2cc;strokeColor=#d6b656;" parent="1" vertex="1">
                    <mxGeometry x="1255" y="299" width="70" height="30" as="geometry"/>
                </mxCell>
                <mxCell id="54" value="&lt;span style=&quot;font-family: &amp;quot;Noto Sans JP&amp;quot;, &amp;quot;ヒラギノ角ゴ Pro W3&amp;quot;, &amp;quot;Hiragino Kaku Gothic Pro&amp;quot;, メイリオ, Meiryo, YuGothic, 游ゴシック, &amp;quot;ＭＳ Ｐゴシック&amp;quot;, &amp;quot;MS PGothic&amp;quot;, arial, sans-serif; text-align: left;&quot;&gt;&lt;font style=&quot;font-size: 12px;&quot; color=&quot;#1a1a1a&quot;&gt;ログアウト&lt;/font&gt;&lt;/span&gt;" style="whiteSpace=wrap;html=1;" parent="1" vertex="1">
                    <mxGeometry x="493" y="466" width="70" height="30" as="geometry"/>
                </mxCell>
                <mxCell id="55" value="" style="edgeStyle=none;orthogonalLoop=1;jettySize=auto;html=1;fontSize=12;fontColor=#1A1A1A;shape=flexArrow;" parent="1" edge="1">
                    <mxGeometry width="100" relative="1" as="geometry">
                        <mxPoint x="158" y="348.57" as="sourcePoint"/>
                        <mxPoint x="238" y="348.57" as="targetPoint"/>
                        <Array as="points"/>
                    </mxGeometry>
                </mxCell>
                <mxCell id="62" value="" style="edgeStyle=none;orthogonalLoop=1;jettySize=auto;html=1;fontSize=12;fontColor=#1A1A1A;shape=flexArrow;" parent="1" edge="1">
                    <mxGeometry width="100" relative="1" as="geometry">
                        <mxPoint x="307.5" y="304.00000000000017" as="sourcePoint"/>
                        <mxPoint x="308" y="250" as="targetPoint"/>
                        <Array as="points"/>
                    </mxGeometry>
                </mxCell>
                <mxCell id="63" value="" style="edgeStyle=none;orthogonalLoop=1;jettySize=auto;html=1;fontSize=12;fontColor=#1A1A1A;shape=flexArrow;" parent="1" edge="1">
                    <mxGeometry width="100" relative="1" as="geometry">
                        <mxPoint x="458" y="480" as="sourcePoint"/>
                        <mxPoint x="88" y="410" as="targetPoint"/>
                        <Array as="points">
                            <mxPoint x="88" y="480"/>
                        </Array>
                    </mxGeometry>
                </mxCell>
                <mxCell id="64" value="" style="edgeStyle=none;orthogonalLoop=1;jettySize=auto;html=1;fontSize=12;fontColor=#1A1A1A;shape=flexArrow;" parent="1" edge="1">
                    <mxGeometry width="100" relative="1" as="geometry">
                        <mxPoint x="377.9999999999999" y="209.56999999999994" as="sourcePoint"/>
                        <mxPoint x="457.9999999999999" y="209.56999999999994" as="targetPoint"/>
                        <Array as="points"/>
                    </mxGeometry>
                </mxCell>
                <mxCell id="69" value="&lt;font color=&quot;#1a1a1a&quot;&gt;一覧画面&lt;br&gt;&lt;/font&gt;" style="whiteSpace=wrap;html=1;fillColor=#cdeb8b;strokeColor=#36393d;verticalAlign=top;" parent="1" vertex="1">
                    <mxGeometry x="660" y="160" width="120" height="280" as="geometry"/>
                </mxCell>
                <mxCell id="70" value="&lt;div style=&quot;text-align: left;&quot;&gt;&lt;span style=&quot;background-color: initial;&quot;&gt;&lt;font face=&quot;Noto Sans JP, ヒラギノ角ゴ Pro W3, Hiragino Kaku Gothic Pro, メイリオ, Meiryo, YuGothic, 游ゴシック, ＭＳ Ｐゴシック, MS PGothic, arial, sans-serif&quot; color=&quot;#1a1a1a&quot;&gt;物件詳細&lt;/font&gt;&lt;/span&gt;&lt;/div&gt;" style="whiteSpace=wrap;html=1;fillColor=#cdeb8b;strokeColor=#36393d;" parent="1" vertex="1">
                    <mxGeometry x="685" y="335" width="70" height="30" as="geometry"/>
                </mxCell>
                <mxCell id="73" value="&lt;div style=&quot;text-align: left;&quot;&gt;&lt;span style=&quot;background-color: initial;&quot;&gt;&lt;font face=&quot;Noto Sans JP, ヒラギノ角ゴ Pro W3, Hiragino Kaku Gothic Pro, メイリオ, Meiryo, YuGothic, 游ゴシック, ＭＳ Ｐゴシック, MS PGothic, arial, sans-serif&quot; color=&quot;#1a1a1a&quot;&gt;ユーザー&lt;/font&gt;&lt;/span&gt;&lt;/div&gt;&lt;div style=&quot;text-align: left;&quot;&gt;&lt;span style=&quot;background-color: initial;&quot;&gt;&lt;font face=&quot;Noto Sans JP, ヒラギノ角ゴ Pro W3, Hiragino Kaku Gothic Pro, メイリオ, Meiryo, YuGothic, 游ゴシック, ＭＳ Ｐゴシック, MS PGothic, arial, sans-serif&quot; color=&quot;#1a1a1a&quot;&gt;情報更新&lt;/font&gt;&lt;/span&gt;&lt;/div&gt;" style="whiteSpace=wrap;html=1;fillColor=#cdeb8b;strokeColor=#36393d;" parent="1" vertex="1">
                    <mxGeometry x="493" y="400" width="70" height="30" as="geometry"/>
                </mxCell>
                <mxCell id="74" value="&lt;span style=&quot;font-family: &amp;quot;Noto Sans JP&amp;quot;, &amp;quot;ヒラギノ角ゴ Pro W3&amp;quot;, &amp;quot;Hiragino Kaku Gothic Pro&amp;quot;, メイリオ, Meiryo, YuGothic, 游ゴシック, &amp;quot;ＭＳ Ｐゴシック&amp;quot;, &amp;quot;MS PGothic&amp;quot;, arial, sans-serif; text-align: left;&quot;&gt;&lt;font style=&quot;font-size: 11px;&quot; color=&quot;#1a1a1a&quot;&gt;ユーザー情報更新画面&lt;/font&gt;&lt;/span&gt;" style="whiteSpace=wrap;html=1;fillColor=#cdeb8b;strokeColor=#36393d;verticalAlign=top;" parent="1" vertex="1">
                    <mxGeometry x="660" y="470" width="120" height="60" as="geometry"/>
                </mxCell>
                <mxCell id="75" value="&lt;div style=&quot;text-align: left;&quot;&gt;&lt;font face=&quot;Noto Sans JP, ヒラギノ角ゴ Pro W3, Hiragino Kaku Gothic Pro, メイリオ, Meiryo, YuGothic, 游ゴシック, ＭＳ Ｐゴシック, MS PGothic, arial, sans-serif&quot; color=&quot;#1a1a1a&quot;&gt;home画面&lt;/font&gt;&lt;/div&gt;&lt;div style=&quot;&quot;&gt;&lt;font face=&quot;Noto Sans JP, ヒラギノ角ゴ Pro W3, Hiragino Kaku Gothic Pro, メイリオ, Meiryo, YuGothic, 游ゴシック, ＭＳ Ｐゴシック, MS PGothic, arial, sans-serif&quot; color=&quot;#1a1a1a&quot;&gt;へ戻る&lt;/font&gt;&lt;/div&gt;" style="whiteSpace=wrap;html=1;fillColor=#fff2cc;strokeColor=#d6b656;" parent="1" vertex="1">
                    <mxGeometry x="685" y="494" width="70" height="30" as="geometry"/>
                </mxCell>
                <mxCell id="76" value="" style="edgeStyle=none;orthogonalLoop=1;jettySize=auto;html=1;endArrow=classic;startArrow=classic;endSize=8;startSize=8;fontSize=12;fontColor=#1A1A1A;shape=flexArrow;targetPerimeterSpacing=100;" parent="1" edge="1">
                    <mxGeometry width="100" relative="1" as="geometry">
                        <mxPoint x="600" y="420" as="sourcePoint"/>
                        <mxPoint x="650" y="470" as="targetPoint"/>
                        <Array as="points"/>
                    </mxGeometry>
                </mxCell>
                <mxCell id="78" value="&lt;font color=&quot;#1a1a1a&quot;&gt;詳細画面&lt;br&gt;&lt;/font&gt;" style="whiteSpace=wrap;html=1;fillColor=#cdeb8b;strokeColor=#36393d;verticalAlign=top;" parent="1" vertex="1">
                    <mxGeometry x="850" y="304" width="120" height="226" as="geometry"/>
                </mxCell>
                <mxCell id="79" value="&lt;div style=&quot;text-align: left;&quot;&gt;&lt;span style=&quot;background-color: initial;&quot;&gt;&lt;font face=&quot;Noto Sans JP, ヒラギノ角ゴ Pro W3, Hiragino Kaku Gothic Pro, メイリオ, Meiryo, YuGothic, 游ゴシック, ＭＳ Ｐゴシック, MS PGothic, arial, sans-serif&quot; color=&quot;#1a1a1a&quot;&gt;口コミ投稿&lt;/font&gt;&lt;/span&gt;&lt;/div&gt;" style="whiteSpace=wrap;html=1;fillColor=#cdeb8b;strokeColor=#36393d;" parent="1" vertex="1">
                    <mxGeometry x="875" y="425" width="70" height="30" as="geometry"/>
                </mxCell>
                <mxCell id="80" value="" style="edgeStyle=none;orthogonalLoop=1;jettySize=auto;html=1;endArrow=classic;startArrow=classic;endSize=8;startSize=8;fontSize=12;fontColor=#1A1A1A;shape=flexArrow;" parent="1" edge="1">
                    <mxGeometry width="100" relative="1" as="geometry">
                        <mxPoint x="1169" y="244.5" as="sourcePoint"/>
                        <mxPoint x="1227.9999999999998" y="244.97000000000003" as="targetPoint"/>
                        <Array as="points"/>
                    </mxGeometry>
                </mxCell>
                <mxCell id="83" value="&lt;font color=&quot;#1a1a1a&quot;&gt;口コミ投稿画面&lt;br&gt;&lt;/font&gt;" style="whiteSpace=wrap;html=1;fillColor=#cdeb8b;strokeColor=#36393d;verticalAlign=top;" parent="1" vertex="1">
                    <mxGeometry x="1040" y="450" width="120" height="80" as="geometry"/>
                </mxCell>
                <mxCell id="93" value="&lt;span style=&quot;font-family: &amp;quot;Noto Sans JP&amp;quot;, &amp;quot;ヒラギノ角ゴ Pro W3&amp;quot;, &amp;quot;Hiragino Kaku Gothic Pro&amp;quot;, メイリオ, Meiryo, YuGothic, 游ゴシック, &amp;quot;ＭＳ Ｐゴシック&amp;quot;, &amp;quot;MS PGothic&amp;quot;, arial, sans-serif; text-align: left;&quot;&gt;&lt;font style=&quot;font-size: 12px;&quot; color=&quot;#1a1a1a&quot;&gt;編集画面&lt;/font&gt;&lt;/span&gt;" style="whiteSpace=wrap;html=1;fillColor=#cdeb8b;strokeColor=#36393d;verticalAlign=top;" parent="1" vertex="1">
                    <mxGeometry x="1230" y="206" width="120" height="60" as="geometry"/>
                </mxCell>
                <mxCell id="94" value="&lt;div style=&quot;border-color: var(--border-color); text-align: left;&quot;&gt;&lt;font style=&quot;border-color: var(--border-color);&quot; face=&quot;Noto Sans JP, ヒラギノ角ゴ Pro W3, Hiragino Kaku Gothic Pro, メイリオ, Meiryo, YuGothic, 游ゴシック, ＭＳ Ｐゴシック, MS PGothic, arial, sans-serif&quot; color=&quot;#1a1a1a&quot;&gt;詳細画面&lt;/font&gt;&lt;/div&gt;&lt;div style=&quot;border-color: var(--border-color);&quot;&gt;&lt;font style=&quot;border-color: var(--border-color);&quot; face=&quot;Noto Sans JP, ヒラギノ角ゴ Pro W3, Hiragino Kaku Gothic Pro, メイリオ, Meiryo, YuGothic, 游ゴシック, ＭＳ Ｐゴシック, MS PGothic, arial, sans-serif&quot; color=&quot;#1a1a1a&quot;&gt;へ戻る&lt;/font&gt;&lt;/div&gt;" style="whiteSpace=wrap;html=1;fillColor=#fff2cc;strokeColor=#d6b656;" parent="1" vertex="1">
                    <mxGeometry x="1255" y="230" width="70" height="30" as="geometry"/>
                </mxCell>
                <mxCell id="96" value="&lt;div style=&quot;&quot;&gt;&lt;font face=&quot;Noto Sans JP, ヒラギノ角ゴ Pro W3, Hiragino Kaku Gothic Pro, メイリオ, Meiryo, YuGothic, 游ゴシック, ＭＳ Ｐゴシック, MS PGothic, arial, sans-serif&quot; color=&quot;#1a1a1a&quot;&gt;welcome画面へ戻る&lt;/font&gt;&lt;/div&gt;" style="whiteSpace=wrap;html=1;fillColor=#fff2cc;strokeColor=#d6b656;align=center;" parent="1" vertex="1">
                    <mxGeometry x="266.5" y="355" width="83" height="30" as="geometry"/>
                </mxCell>
                <mxCell id="97" value="&lt;div style=&quot;&quot;&gt;&lt;font face=&quot;Noto Sans JP, ヒラギノ角ゴ Pro W3, Hiragino Kaku Gothic Pro, メイリオ, Meiryo, YuGothic, 游ゴシック, ＭＳ Ｐゴシック, MS PGothic, arial, sans-serif&quot; color=&quot;#1a1a1a&quot;&gt;ログイン&lt;/font&gt;&lt;/div&gt;" style="whiteSpace=wrap;html=1;fillColor=#fff2cc;strokeColor=#d6b656;align=center;" parent="1" vertex="1">
                    <mxGeometry x="266.5" y="190" width="83" height="30" as="geometry"/>
                </mxCell>
                <mxCell id="99" value="&lt;div style=&quot;text-align: left;&quot;&gt;&lt;div style=&quot;border-color: var(--border-color);&quot;&gt;&lt;font style=&quot;border-color: var(--border-color);&quot; face=&quot;Noto Sans JP, ヒラギノ角ゴ Pro W3, Hiragino Kaku Gothic Pro, メイリオ, Meiryo, YuGothic, 游ゴシック, ＭＳ Ｐゴシック, MS PGothic, arial, sans-serif&quot; color=&quot;#1a1a1a&quot;&gt;home画面&lt;/font&gt;&lt;/div&gt;&lt;div style=&quot;border-color: var(--border-color); text-align: center;&quot;&gt;&lt;font style=&quot;border-color: var(--border-color);&quot; face=&quot;Noto Sans JP, ヒラギノ角ゴ Pro W3, Hiragino Kaku Gothic Pro, メイリオ, Meiryo, YuGothic, 游ゴシック, ＭＳ Ｐゴシック, MS PGothic, arial, sans-serif&quot; color=&quot;#1a1a1a&quot;&gt;へ戻る&lt;/font&gt;&lt;/div&gt;&lt;/div&gt;" style="whiteSpace=wrap;html=1;fillColor=#fff2cc;strokeColor=#d6b656;" parent="1" vertex="1">
                    <mxGeometry x="685" y="385" width="70" height="30" as="geometry"/>
                </mxCell>
                <mxCell id="100" value="&lt;div style=&quot;text-align: left;&quot;&gt;&lt;div style=&quot;border-color: var(--border-color);&quot;&gt;&lt;font style=&quot;border-color: var(--border-color);&quot; face=&quot;Noto Sans JP, ヒラギノ角ゴ Pro W3, Hiragino Kaku Gothic Pro, メイリオ, Meiryo, YuGothic, 游ゴシック, ＭＳ Ｐゴシック, MS PGothic, arial, sans-serif&quot; color=&quot;#1a1a1a&quot;&gt;一覧画面&lt;/font&gt;&lt;/div&gt;&lt;div style=&quot;border-color: var(--border-color); text-align: center;&quot;&gt;&lt;font style=&quot;border-color: var(--border-color);&quot; face=&quot;Noto Sans JP, ヒラギノ角ゴ Pro W3, Hiragino Kaku Gothic Pro, メイリオ, Meiryo, YuGothic, 游ゴシック, ＭＳ Ｐゴシック, MS PGothic, arial, sans-serif&quot; color=&quot;#1a1a1a&quot;&gt;へ戻る&lt;/font&gt;&lt;/div&gt;&lt;/div&gt;" style="whiteSpace=wrap;html=1;fillColor=#fff2cc;strokeColor=#d6b656;" parent="1" vertex="1">
                    <mxGeometry x="875" y="480" width="70" height="30" as="geometry"/>
                </mxCell>
                <mxCell id="101" value="&lt;div style=&quot;text-align: left;&quot;&gt;&lt;div style=&quot;border-color: var(--border-color);&quot;&gt;&lt;font style=&quot;border-color: var(--border-color);&quot; face=&quot;Noto Sans JP, ヒラギノ角ゴ Pro W3, Hiragino Kaku Gothic Pro, メイリオ, Meiryo, YuGothic, 游ゴシック, ＭＳ Ｐゴシック, MS PGothic, arial, sans-serif&quot; color=&quot;#1a1a1a&quot;&gt;詳細画面&lt;/font&gt;&lt;/div&gt;&lt;div style=&quot;border-color: var(--border-color); text-align: center;&quot;&gt;&lt;font style=&quot;border-color: var(--border-color);&quot; face=&quot;Noto Sans JP, ヒラギノ角ゴ Pro W3, Hiragino Kaku Gothic Pro, メイリオ, Meiryo, YuGothic, 游ゴシック, ＭＳ Ｐゴシック, MS PGothic, arial, sans-serif&quot; color=&quot;#1a1a1a&quot;&gt;へ戻る&lt;/font&gt;&lt;/div&gt;&lt;/div&gt;" style="whiteSpace=wrap;html=1;fillColor=#fff2cc;strokeColor=#d6b656;" parent="1" vertex="1">
                    <mxGeometry x="1065" y="484.5" width="70" height="30" as="geometry"/>
                </mxCell>
                <mxCell id="102" value="&lt;div style=&quot;text-align: left;&quot;&gt;&lt;span style=&quot;background-color: initial;&quot;&gt;&lt;font face=&quot;Noto Sans JP, ヒラギノ角ゴ Pro W3, Hiragino Kaku Gothic Pro, メイリオ, Meiryo, YuGothic, 游ゴシック, ＭＳ Ｐゴシック, MS PGothic, arial, sans-serif&quot; color=&quot;#1a1a1a&quot;&gt;口コミ一覧&lt;/font&gt;&lt;/span&gt;&lt;/div&gt;" style="whiteSpace=wrap;html=1;fillColor=#cdeb8b;strokeColor=#36393d;" parent="1" vertex="1">
                    <mxGeometry x="875" y="349" width="70" height="30" as="geometry"/>
                </mxCell>
                <mxCell id="113" value="口コミ投稿後&lt;br&gt;口コミ一覧画面へ遷移" style="text;html=1;align=center;verticalAlign=middle;resizable=0;points=[];autosize=1;" parent="1" vertex="1">
                    <mxGeometry x="1110" y="405" width="140" height="40" as="geometry"/>
                </mxCell>
                <mxCell id="115" value="&lt;font color=&quot;#1a1a1a&quot;&gt;口コミ一覧画面&lt;br&gt;&lt;/font&gt;" style="whiteSpace=wrap;html=1;fillColor=#cdeb8b;strokeColor=#36393d;verticalAlign=top;" parent="1" vertex="1">
                    <mxGeometry x="1040" y="205" width="120" height="180" as="geometry"/>
                </mxCell>
                <mxCell id="116" value="&lt;div style=&quot;text-align: left;&quot;&gt;&lt;span style=&quot;background-color: initial;&quot;&gt;&lt;font face=&quot;Noto Sans JP, ヒラギノ角ゴ Pro W3, Hiragino Kaku Gothic Pro, メイリオ, Meiryo, YuGothic, 游ゴシック, ＭＳ Ｐゴシック, MS PGothic, arial, sans-serif&quot; color=&quot;#1a1a1a&quot;&gt;口コミ削除&lt;/font&gt;&lt;/span&gt;&lt;/div&gt;" style="whiteSpace=wrap;html=1;fillColor=#cdeb8b;strokeColor=#36393d;" parent="1" vertex="1">
                    <mxGeometry x="1065" y="285" width="70" height="30" as="geometry"/>
                </mxCell>
                <mxCell id="117" value="&lt;div style=&quot;text-align: left;&quot;&gt;&lt;div style=&quot;border-color: var(--border-color);&quot;&gt;&lt;font style=&quot;border-color: var(--border-color);&quot; face=&quot;Noto Sans JP, ヒラギノ角ゴ Pro W3, Hiragino Kaku Gothic Pro, メイリオ, Meiryo, YuGothic, 游ゴシック, ＭＳ Ｐゴシック, MS PGothic, arial, sans-serif&quot; color=&quot;#1a1a1a&quot;&gt;詳細画面&lt;/font&gt;&lt;/div&gt;&lt;div style=&quot;border-color: var(--border-color); text-align: center;&quot;&gt;&lt;font style=&quot;border-color: var(--border-color);&quot; face=&quot;Noto Sans JP, ヒラギノ角ゴ Pro W3, Hiragino Kaku Gothic Pro, メイリオ, Meiryo, YuGothic, 游ゴシック, ＭＳ Ｐゴシック, MS PGothic, arial, sans-serif&quot; color=&quot;#1a1a1a&quot;&gt;へ戻る&lt;/font&gt;&lt;/div&gt;&lt;/div&gt;" style="whiteSpace=wrap;html=1;fillColor=#fff2cc;strokeColor=#d6b656;" parent="1" vertex="1">
                    <mxGeometry x="1065" y="330" width="70" height="30" as="geometry"/>
                </mxCell>
                <mxCell id="120" value="&lt;div style=&quot;text-align: left;&quot;&gt;&lt;span style=&quot;background-color: initial;&quot;&gt;&lt;font face=&quot;Noto Sans JP, ヒラギノ角ゴ Pro W3, Hiragino Kaku Gothic Pro, メイリオ, Meiryo, YuGothic, 游ゴシック, ＭＳ Ｐゴシック, MS PGothic, arial, sans-serif&quot; color=&quot;#1a1a1a&quot;&gt;口コミ編集&lt;/font&gt;&lt;/span&gt;&lt;/div&gt;" style="whiteSpace=wrap;html=1;fillColor=#cdeb8b;strokeColor=#36393d;" parent="1" vertex="1">
                    <mxGeometry x="1065" y="235" width="70" height="30" as="geometry"/>
                </mxCell>
                <mxCell id="123" value="" style="edgeStyle=none;orthogonalLoop=1;jettySize=auto;html=1;endArrow=classic;startArrow=classic;endSize=8;startSize=8;fontSize=12;fontColor=#1A1A1A;shape=flexArrow;" parent="1" edge="1">
                    <mxGeometry width="100" relative="1" as="geometry">
                        <mxPoint x="1169" y="299" as="sourcePoint"/>
                        <mxPoint x="1227.9999999999998" y="299.47" as="targetPoint"/>
                        <Array as="points"/>
                    </mxGeometry>
                </mxCell>
                <mxCell id="124" value="口コミ編集後&lt;br&gt;口コミ一覧画面へ遷移" style="text;html=1;align=center;verticalAlign=middle;resizable=0;points=[];autosize=1;" parent="1" vertex="1">
                    <mxGeometry x="1360" y="216" width="140" height="40" as="geometry"/>
                </mxCell>
                <mxCell id="125" value="口コミ削除後&lt;br&gt;口コミ一覧画面へ遷移" style="text;html=1;align=center;verticalAlign=middle;resizable=0;points=[];autosize=1;" parent="1" vertex="1">
                    <mxGeometry x="1360" y="285" width="140" height="40" as="geometry"/>
                </mxCell>
                <mxCell id="126" value="&lt;div style=&quot;text-align: left;&quot;&gt;&lt;span style=&quot;background-color: initial;&quot;&gt;&lt;font style=&quot;font-size: 11px;&quot; face=&quot;Noto Sans JP, ヒラギノ角ゴ Pro W3, Hiragino Kaku Gothic Pro, メイリオ, Meiryo, YuGothic, 游ゴシック, ＭＳ Ｐゴシック, MS PGothic, arial, sans-serif&quot; color=&quot;#1a1a1a&quot;&gt;物件新規&lt;/font&gt;&lt;/span&gt;&lt;span style=&quot;color: rgb(26, 26, 26); font-family: &amp;quot;Noto Sans JP&amp;quot;, &amp;quot;ヒラギノ角ゴ Pro W3&amp;quot;, &amp;quot;Hiragino Kaku Gothic Pro&amp;quot;, メイリオ, Meiryo, YuGothic, 游ゴシック, &amp;quot;ＭＳ Ｐゴシック&amp;quot;, &amp;quot;MS PGothic&amp;quot;, arial, sans-serif; background-color: initial;&quot;&gt;登録&lt;/span&gt;&lt;/div&gt;" style="whiteSpace=wrap;html=1;fillColor=#e1d5e7;strokeColor=#9673a6;" parent="1" vertex="1">
                    <mxGeometry x="685" y="195" width="70" height="30" as="geometry"/>
                </mxCell>
                <mxCell id="131" value="&lt;span style=&quot;font-family: &amp;quot;Noto Sans JP&amp;quot;, &amp;quot;ヒラギノ角ゴ Pro W3&amp;quot;, &amp;quot;Hiragino Kaku Gothic Pro&amp;quot;, メイリオ, Meiryo, YuGothic, 游ゴシック, &amp;quot;ＭＳ Ｐゴシック&amp;quot;, &amp;quot;MS PGothic&amp;quot;, arial, sans-serif; text-align: left;&quot;&gt;&lt;font style=&quot;font-size: 11px;&quot; color=&quot;#1a1a1a&quot;&gt;物件新規登録画面&lt;/font&gt;&lt;/span&gt;" style="whiteSpace=wrap;html=1;fillColor=#e1d5e7;strokeColor=#9673a6;verticalAlign=top;" parent="1" vertex="1">
                    <mxGeometry x="660" y="25" width="120" height="60" as="geometry"/>
                </mxCell>
                <mxCell id="132" value="&lt;div style=&quot;text-align: left;&quot;&gt;&lt;font face=&quot;Noto Sans JP, ヒラギノ角ゴ Pro W3, Hiragino Kaku Gothic Pro, メイリオ, Meiryo, YuGothic, 游ゴシック, ＭＳ Ｐゴシック, MS PGothic, arial, sans-serif&quot; color=&quot;#1a1a1a&quot;&gt;一覧画面&lt;/font&gt;&lt;/div&gt;&lt;div style=&quot;&quot;&gt;&lt;font face=&quot;Noto Sans JP, ヒラギノ角ゴ Pro W3, Hiragino Kaku Gothic Pro, メイリオ, Meiryo, YuGothic, 游ゴシック, ＭＳ Ｐゴシック, MS PGothic, arial, sans-serif&quot; color=&quot;#1a1a1a&quot;&gt;へ戻る&lt;/font&gt;&lt;/div&gt;" style="whiteSpace=wrap;html=1;fillColor=#fff2cc;strokeColor=#d6b656;" parent="1" vertex="1">
                    <mxGeometry x="685" y="49" width="70" height="30" as="geometry"/>
                </mxCell>
                <mxCell id="134" value="" style="edgeStyle=none;orthogonalLoop=1;jettySize=auto;html=1;endArrow=classic;startArrow=classic;endSize=8;startSize=8;fontSize=12;fontColor=#1A1A1A;shape=flexArrow;targetPerimeterSpacing=100;" parent="1" edge="1">
                    <mxGeometry width="100" relative="1" as="geometry">
                        <mxPoint x="719" y="92.97000000000003" as="sourcePoint"/>
                        <mxPoint x="721" y="154" as="targetPoint"/>
                        <Array as="points"/>
                    </mxGeometry>
                </mxCell>
                <mxCell id="135" value="&lt;div style=&quot;text-align: left;&quot;&gt;&lt;span style=&quot;background-color: initial;&quot;&gt;&lt;font style=&quot;font-size: 11px;&quot; face=&quot;Noto Sans JP, ヒラギノ角ゴ Pro W3, Hiragino Kaku Gothic Pro, メイリオ, Meiryo, YuGothic, 游ゴシック, ＭＳ Ｐゴシック, MS PGothic, arial, sans-serif&quot; color=&quot;#1a1a1a&quot;&gt;物件編集&lt;/font&gt;&lt;/span&gt;&lt;/div&gt;" style="whiteSpace=wrap;html=1;fillColor=#e1d5e7;strokeColor=#9673a6;" parent="1" vertex="1">
                    <mxGeometry x="685" y="245" width="70" height="30" as="geometry"/>
                </mxCell>
                <mxCell id="136" value="&lt;div style=&quot;text-align: left;&quot;&gt;&lt;span style=&quot;background-color: initial;&quot;&gt;&lt;font style=&quot;font-size: 11px;&quot; face=&quot;Noto Sans JP, ヒラギノ角ゴ Pro W3, Hiragino Kaku Gothic Pro, メイリオ, Meiryo, YuGothic, 游ゴシック, ＭＳ Ｐゴシック, MS PGothic, arial, sans-serif&quot; color=&quot;#1a1a1a&quot;&gt;物件削除&lt;/font&gt;&lt;/span&gt;&lt;/div&gt;" style="whiteSpace=wrap;html=1;fillColor=#e1d5e7;strokeColor=#9673a6;" parent="1" vertex="1">
                    <mxGeometry x="685" y="290" width="70" height="30" as="geometry"/>
                </mxCell>
                <mxCell id="138" value="&lt;span style=&quot;font-family: &amp;quot;Noto Sans JP&amp;quot;, &amp;quot;ヒラギノ角ゴ Pro W3&amp;quot;, &amp;quot;Hiragino Kaku Gothic Pro&amp;quot;, メイリオ, Meiryo, YuGothic, 游ゴシック, &amp;quot;ＭＳ Ｐゴシック&amp;quot;, &amp;quot;MS PGothic&amp;quot;, arial, sans-serif; text-align: left;&quot;&gt;&lt;font style=&quot;font-size: 11px;&quot; color=&quot;#1a1a1a&quot;&gt;物件編集画面&lt;/font&gt;&lt;/span&gt;" style="whiteSpace=wrap;html=1;fillColor=#e1d5e7;strokeColor=#9673a6;verticalAlign=top;" parent="1" vertex="1">
                    <mxGeometry x="850" y="25" width="120" height="60" as="geometry"/>
                </mxCell>
                <mxCell id="139" value="&lt;div style=&quot;text-align: left;&quot;&gt;&lt;font face=&quot;Noto Sans JP, ヒラギノ角ゴ Pro W3, Hiragino Kaku Gothic Pro, メイリオ, Meiryo, YuGothic, 游ゴシック, ＭＳ Ｐゴシック, MS PGothic, arial, sans-serif&quot; color=&quot;#1a1a1a&quot;&gt;一覧画面&lt;/font&gt;&lt;/div&gt;&lt;div style=&quot;&quot;&gt;&lt;font face=&quot;Noto Sans JP, ヒラギノ角ゴ Pro W3, Hiragino Kaku Gothic Pro, メイリオ, Meiryo, YuGothic, 游ゴシック, ＭＳ Ｐゴシック, MS PGothic, arial, sans-serif&quot; color=&quot;#1a1a1a&quot;&gt;へ戻る&lt;/font&gt;&lt;/div&gt;" style="whiteSpace=wrap;html=1;fillColor=#fff2cc;strokeColor=#d6b656;" parent="1" vertex="1">
                    <mxGeometry x="875" y="49" width="70" height="30" as="geometry"/>
                </mxCell>
                <mxCell id="140" value="&lt;span style=&quot;font-family: &amp;quot;Noto Sans JP&amp;quot;, &amp;quot;ヒラギノ角ゴ Pro W3&amp;quot;, &amp;quot;Hiragino Kaku Gothic Pro&amp;quot;, メイリオ, Meiryo, YuGothic, 游ゴシック, &amp;quot;ＭＳ Ｐゴシック&amp;quot;, &amp;quot;MS PGothic&amp;quot;, arial, sans-serif; text-align: left;&quot;&gt;&lt;font style=&quot;font-size: 11px;&quot; color=&quot;#1a1a1a&quot;&gt;物件削除画面&lt;/font&gt;&lt;/span&gt;" style="whiteSpace=wrap;html=1;fillColor=#e1d5e7;strokeColor=#9673a6;verticalAlign=top;" parent="1" vertex="1">
                    <mxGeometry x="850" y="160" width="120" height="60" as="geometry"/>
                </mxCell>
                <mxCell id="141" value="&lt;div style=&quot;text-align: left;&quot;&gt;&lt;font face=&quot;Noto Sans JP, ヒラギノ角ゴ Pro W3, Hiragino Kaku Gothic Pro, メイリオ, Meiryo, YuGothic, 游ゴシック, ＭＳ Ｐゴシック, MS PGothic, arial, sans-serif&quot; color=&quot;#1a1a1a&quot;&gt;一覧画面&lt;/font&gt;&lt;/div&gt;&lt;div style=&quot;&quot;&gt;&lt;font face=&quot;Noto Sans JP, ヒラギノ角ゴ Pro W3, Hiragino Kaku Gothic Pro, メイリオ, Meiryo, YuGothic, 游ゴシック, ＭＳ Ｐゴシック, MS PGothic, arial, sans-serif&quot; color=&quot;#1a1a1a&quot;&gt;へ戻る&lt;/font&gt;&lt;/div&gt;" style="whiteSpace=wrap;html=1;fillColor=#fff2cc;strokeColor=#d6b656;" parent="1" vertex="1">
                    <mxGeometry x="875" y="184" width="70" height="30" as="geometry"/>
                </mxCell>
                <mxCell id="142" value="" style="edgeStyle=none;orthogonalLoop=1;jettySize=auto;html=1;endArrow=classic;startArrow=classic;endSize=8;startSize=8;fontSize=12;fontColor=#1A1A1A;shape=flexArrow;targetPerimeterSpacing=100;" parent="1" edge="1">
                    <mxGeometry width="100" relative="1" as="geometry">
                        <mxPoint x="870" y="230" as="sourcePoint"/>
                        <mxPoint x="770" y="300" as="targetPoint"/>
                        <Array as="points"/>
                    </mxGeometry>
                </mxCell>
                <mxCell id="143" value="" style="edgeStyle=none;orthogonalLoop=1;jettySize=auto;html=1;endArrow=classic;startArrow=classic;endSize=8;startSize=8;fontSize=12;fontColor=#1A1A1A;shape=flexArrow;targetPerimeterSpacing=100;" parent="1" edge="1">
                    <mxGeometry width="100" relative="1" as="geometry">
                        <mxPoint x="870" y="90" as="sourcePoint"/>
                        <mxPoint x="760" y="250" as="targetPoint"/>
                        <Array as="points"/>
                    </mxGeometry>
                </mxCell>
                <mxCell id="144" value="&lt;font style=&quot;font-size: 18px;&quot;&gt;&lt;b&gt;&lt;font style=&quot;&quot;&gt;緑色＝ユーザー専用画面&lt;br&gt;紫色＝スタッ&lt;/font&gt;フ専用画面&lt;/b&gt;&lt;/font&gt;" style="text;html=1;align=center;verticalAlign=middle;resizable=0;points=[];autosize=1;strokeColor=none;fillColor=none;" parent="1" vertex="1">
                    <mxGeometry x="418" y="25" width="220" height="60" as="geometry"/>
                </mxCell>
                <mxCell id="146" value="" style="edgeStyle=none;orthogonalLoop=1;jettySize=auto;html=1;endArrow=classic;startArrow=classic;endSize=8;startSize=8;fontSize=12;fontColor=#1A1A1A;shape=flexArrow;targetPerimeterSpacing=100;entryX=-0.025;entryY=0.407;entryDx=0;entryDy=0;entryPerimeter=0;" parent="1" target="69" edge="1">
                    <mxGeometry width="100" relative="1" as="geometry">
                        <mxPoint x="590" y="275" as="sourcePoint"/>
                        <mxPoint x="640" y="325" as="targetPoint"/>
                        <Array as="points"/>
                    </mxGeometry>
                </mxCell>
                <mxCell id="147" value="" style="edgeStyle=none;orthogonalLoop=1;jettySize=auto;html=1;endArrow=classic;startArrow=classic;endSize=8;startSize=8;fontSize=12;fontColor=#1A1A1A;shape=flexArrow;targetPerimeterSpacing=100;entryX=-0.025;entryY=0.407;entryDx=0;entryDy=0;entryPerimeter=0;" parent="1" edge="1">
                    <mxGeometry width="100" relative="1" as="geometry">
                        <mxPoint x="783" y="350.52" as="sourcePoint"/>
                        <mxPoint x="850" y="349.48" as="targetPoint"/>
                        <Array as="points"/>
                    </mxGeometry>
                </mxCell>
                <mxCell id="148" value="" style="edgeStyle=none;orthogonalLoop=1;jettySize=auto;html=1;endArrow=classic;startArrow=classic;endSize=8;startSize=8;fontSize=12;fontColor=#1A1A1A;shape=flexArrow;targetPerimeterSpacing=100;" parent="1" edge="1">
                    <mxGeometry width="100" relative="1" as="geometry">
                        <mxPoint x="975" y="359" as="sourcePoint"/>
                        <mxPoint x="1035" y="319" as="targetPoint"/>
                        <Array as="points"/>
                    </mxGeometry>
                </mxCell>
                <mxCell id="149" value="" style="edgeStyle=none;orthogonalLoop=1;jettySize=auto;html=1;endArrow=classic;startArrow=classic;endSize=8;startSize=8;fontSize=12;fontColor=#1A1A1A;shape=flexArrow;targetPerimeterSpacing=100;" parent="1" edge="1">
                    <mxGeometry width="100" relative="1" as="geometry">
                        <mxPoint x="975" y="445" as="sourcePoint"/>
                        <mxPoint x="1035" y="476" as="targetPoint"/>
                        <Array as="points"/>
                    </mxGeometry>
                </mxCell>
                <mxCell id="150" value="" style="edgeStyle=none;orthogonalLoop=1;jettySize=auto;html=1;endArrow=classic;startArrow=classic;endSize=8;startSize=8;fontSize=12;fontColor=#1A1A1A;shape=flexArrow;targetPerimeterSpacing=100;" parent="1" edge="1">
                    <mxGeometry width="100" relative="1" as="geometry">
                        <mxPoint x="1099" y="386.49" as="sourcePoint"/>
                        <mxPoint x="1101" y="447.52" as="targetPoint"/>
                        <Array as="points"/>
                    </mxGeometry>
                </mxCell>
            </root>
        </mxGraphModel>
    </diagram>
</mxfile>